<svg version="1.1" xmlns="http://www.w3.org/2000/svg" xmlns:xlink="http://www.w3.org/1999/xlink" width="512" height="512" viewBox="0,0,256,256"><g fill="#90591c" fill-rule="nonzero" stroke="none" stroke-width="1" stroke-linecap="butt" stroke-linejoin="miter" stroke-miterlimit="10" stroke-dasharray="" stroke-dashoffset="0" font-family="none" font-weight="none" font-size="none" text-anchor="none" style="mix-blend-mode: normal"><g transform="translate(0,-2.94596) scale(2,2)"><path d="M126.25,52.2h-15.458l-2.479,-5.7h3.1c0.67669,0.00096 1.29321,-0.3885 1.583,-1l3,-6.375c0.12583,-0.27225 0.18119,-0.57176 0.161,-0.871c-0.06331,-6.26299 -4.264,-11.72797 -10.3,-13.4c0.89892,-2.06873 0.28145,-4.48365 -1.50012,-5.86701c-1.78158,-1.38336 -4.27418,-1.38336 -6.05576,0c-1.78158,1.38336 -2.39904,3.79828 -1.50012,5.86701c-6.0358,1.67233 -10.23636,7.13713 -10.3,13.4c-0.01972,0.29921 0.03562,0.59861 0.161,0.871l3,6.375c0.2896,0.61167 0.90624,1.00121 1.583,1h3.1l-2.471,5.7h-18.415l-2.479,-5.7h3.1c0.67676,0.00121 1.2934,-0.38833 1.583,-1l3,-6.375c0.12583,-0.27225 0.18119,-0.57176 0.161,-0.871c-0.06331,-6.26299 -4.264,-11.72797 -10.3,-13.4c0.90029,-2.06926 0.28327,-4.48557 -1.4989,-5.86984c-1.78217,-1.38427 -4.27602,-1.38427 -6.05819,0c-1.78217,1.38427 -2.39919,3.80058 -1.4989,5.86984c-6.036,1.67203 -10.23669,7.13701 -10.3,13.4c-0.01972,0.29921 0.03562,0.59861 0.161,0.871l3,6.375c0.2896,0.61167 0.90624,1.00121 1.583,1h3.1l-2.471,5.7h-18.415l-2.479,-5.7h3.1c0.67676,0.00121 1.2934,-0.38833 1.583,-1l3,-6.375c0.12583,-0.27225 0.18119,-0.57176 0.161,-0.871c-0.06364,-6.26287 -4.2642,-11.72767 -10.3,-13.4c0.90029,-2.06926 0.28327,-4.48557 -1.4989,-5.86984c-1.78217,-1.38427 -4.27602,-1.38427 -6.05819,0c-1.78217,1.38427 -2.39919,3.80058 -1.4989,5.86984c-6.036,1.67203 -10.23669,7.13701 -10.3,13.4c-0.01972,0.29921 0.03562,0.59861 0.161,0.871l3.004,6.375c0.28979,0.6115 0.90631,1.00096 1.583,1h3.1l-2.475,5.7h-15.458c-0.96455,0 -1.74724,0.78045 -1.75,1.745v57.305c0,0.9665 0.7835,1.75 1.75,1.75h9.25c0.9665,0 1.75,-0.7835 1.75,-1.75v-23.615c2.08347,-0.12951 4.06396,-0.95134 5.627,-2.335c2.31202,-2.18233 5.92498,-2.18233 8.237,0c3.57467,3.15222 8.93633,3.15222 12.511,0c2.31189,-2.1817 5.92411,-2.1817 8.236,0c3.57467,3.15222 8.93633,3.15222 12.511,0c2.31161,-2.18045 5.92239,-2.18045 8.234,0c3.57401,3.15193 8.93499,3.15193 12.509,0c2.31229,-2.18359 5.92671,-2.18359 8.239,0c3.57582,3.15221 8.93818,3.15221 12.514,0c2.31396,-2.18135 5.92704,-2.18135 8.241,0c1.56787,1.38432 3.55331,2.2051 5.641,2.332v23.618c0,0.9665 0.7835,1.75 1.75,1.75h9.25c0.9665,0 1.75,-0.7835 1.75,-1.75v-57.3c0,-0.9665 -0.7835,-1.75 -1.75,-1.75zM101.333,21.461c0.58198,-0.00202 1.10779,0.34694 1.332,0.884c0.22421,0.53706 0.1026,1.15631 -0.30806,1.56869c-0.41066,0.41238 -1.0294,0.53658 -1.56739,0.31461c-0.53799,-0.22196 -0.88915,-0.74632 -0.88956,-1.3283c-0.00001,-0.7924 0.64061,-1.4357 1.433,-1.439zM100.542,27.836h1.583c5.14589,0.00402 9.53918,3.71762 10.4,8.791h-22.379c0.86056,-5.07189 5.25162,-8.78503 10.396,-8.791zM91.009,40.127h20.649l-1.358,2.873h-17.938zM98.171,46.5h6.329l2.479,5.693h-11.288zM64,21.461c0.79406,0 1.43782,0.64361 1.438,1.43767c0.00018,0.79406 -0.64328,1.43796 -1.43733,1.43833c-0.79406,0.00037 -1.43811,-0.64294 -1.43867,-1.437c-0.00027,-0.38155 0.15112,-0.74757 0.42083,-1.01747c0.26971,-0.26989 0.63562,-0.42153 1.01717,-0.42153zM63.208,27.836h1.584c5.14415,0.00604 9.53488,3.71926 10.395,8.791h-22.375c0.86094,-5.07168 5.25177,-8.78462 10.396,-8.791zM53.676,40.127h20.648l-1.353,2.873h-17.942zM60.837,46.5h6.326l2.479,5.7h-11.284zM26.667,21.461c0.79406,0 1.43782,0.64361 1.438,1.43767c0.00018,0.79406 -0.64328,1.43796 -1.43733,1.43833c-0.79406,0.00037 -1.43811,-0.64294 -1.43867,-1.437c-0.00027,-0.38155 0.15112,-0.74757 0.42083,-1.01747c0.26971,-0.26989 0.63562,-0.42153 1.01717,-0.42153zM25.875,27.836h1.583c5.14589,0.00402 9.53918,3.71762 10.4,8.791h-22.379c0.86056,-5.07189 5.25162,-8.78503 10.396,-8.791zM16.342,40.127h20.649l-1.353,2.873h-17.938zM23.5,46.5h6.325l2.48,5.693h-11.28zM18.354,55.7h96.146v16.687c-6.13984,-3.22508 -13.53571,-2.91992 -19.389,0.8c-6.33002,-4.02872 -14.41998,-4.02872 -20.75,0c-6.3284,-4.02808 -14.4166,-4.02808 -20.745,0c-6.32916,-4.02794 -14.41784,-4.02794 -20.747,0c-3.08409,-2.00455 -6.69087,-3.05503 -10.369,-3.02c-3.13814,-0.03109 -6.23349,0.72933 -9,2.211v-16.678zM3.5,109.5v-25.593c0.86694,0.31954 1.66862,0.79391 2.366,1.4c1.00068,0.84507 2.14758,1.49985 3.384,1.932v22.261zM105.486,80.168c-2.30665,-0.0185 -4.53717,0.8245 -6.255,2.364c-2.31362,2.18122 -5.92638,2.18122 -8.24,0c-3.57516,-3.15192 -8.93684,-3.15192 -12.512,0c-2.31175,2.18107 -5.92325,2.18107 -8.235,0c-3.57467,-3.15222 -8.93633,-3.15222 -12.511,0c-2.31175,2.18107 -5.92325,2.18107 -8.235,0c-3.57434,-3.15208 -8.93566,-3.15208 -12.51,0c-2.31202,2.18233 -5.92498,2.18233 -8.237,0c-3.57467,-3.15222 -8.93633,-3.15222 -12.511,0c-1.10289,1.06754 -2.58319,1.65564 -4.118,1.636c-0.28752,-0.00076 -0.57472,-0.01913 -0.86,-0.055l-0.035,-0.008c-1.20529,-0.19719 -2.3253,-0.74658 -3.219,-1.579c-1.29822,-1.09634 -2.84649,-1.85605 -4.508,-2.212v-24.614h6.5v19.342c0.00015,0.572 0.27982,1.10782 0.749,1.435l0.344,0.244c0.61288,0.44454 1.44212,0.44454 2.055,0c2.69386,-2.02413 5.98272,-3.09814 9.352,-3.054c3.36823,-0.04217 6.65551,1.03285 9.348,3.057c0.61266,0.44295 1.44034,0.44295 2.053,0c5.56499,-4.07538 13.12901,-4.07538 18.694,0c0.61235,0.44389 1.44065,0.44389 2.053,0c5.56447,-4.07473 13.12753,-4.07473 18.692,0c0.61266,0.44295 1.44034,0.44295 2.053,0c5.56656,-4.07735 13.13344,-4.07735 18.7,0c0.61266,0.44295 1.44034,0.44295 2.053,0c5.56677,-4.07672 13.13323,-4.07672 18.7,0c0.61171,0.44133 1.43729,0.44133 2.049,0l0.358,-0.253c0.46755,-0.32702 0.74633,-0.86143 0.747,-1.432v-19.339h6.5v24.613c-1.66304,0.35645 -3.21289,1.11643 -4.513,2.213c-0.89365,0.83059 -2.01223,1.37944 -3.216,1.578l-0.033,0.008c-0.28855,0.03672 -0.57912,0.05543 -0.87,0.056c-1.53599,0.01961 -3.01752,-0.56841 -4.122,-1.636c-1.71966,-1.53974 -3.95182,-2.38268 -6.26,-2.364zM118.75,109.5v-22.263c1.23416,-0.4336 2.37889,-1.08865 3.378,-1.933c0.69958,-0.60615 1.50324,-1.08049 2.372,-1.4v25.596z"></path></g></g></svg>