<svg version="1.1" xmlns="http://www.w3.org/2000/svg" xmlns:xlink="http://www.w3.org/1999/xlink" width="682.66669" height="682.66669" viewBox="0,0,256,256"><defs><clipPath id="clip-1"><path d="M0,512h512v-512h-512z" id="clipPath353" stroke="none" stroke-width="1" stroke-linecap="butt" stroke-linejoin="miter"></path></clipPath></defs><g fill="none" fill-rule="nonzero" stroke="none" stroke-width="none" stroke-linecap="none" stroke-linejoin="none" stroke-miterlimit="10" stroke-dasharray="" stroke-dashoffset="0" font-family="none" font-weight="none" font-size="none" text-anchor="none" style="mix-blend-mode: normal"><g transform="translate(0.00001,0) scale(0.375,0.375)"><g transform="translate(0,682.66667) scale(1.33333,-1.33333)" id="g345"><g id="g347"><g clip-path="url(#clip-1)" id="g349"><g transform="translate(255.9854,367.4937)" id="g355" stroke="#ffffff" stroke-width="20.148" stroke-linecap="round" stroke-linejoin="round"><path d="M0,0l-60.915,58.833c-16.752,17.389 -16.752,45.813 0,63.173c14.627,15.176 38.834,13.134 54.141,-1.192c6.973,-6.524 6.576,-6.524 13.578,0c15.306,14.326 39.513,16.368 54.14,1.192c16.752,-17.36 16.752,-45.784 0,-63.173z" id="path357"></path></g><g transform="translate(165.1084,178.1445)" id="g359" stroke="#ffffff" stroke-width="20.148" stroke-linecap="round" stroke-linejoin="round"><path d="M0,0v-28.849c38.069,-12.595 89.999,-15.431 90.877,-69.442v-67.854" id="path361"></path></g><g transform="translate(316.8447,140.7573)" id="g363" stroke="#ffffff" stroke-width="20.148" stroke-linecap="round" stroke-linejoin="round"><path d="M0,0l62.134,-128.757l62.135,128.757" id="path365"></path></g><g transform="translate(458.4326,252.1821)" id="g367" stroke="#ffffff" stroke-width="20.148" stroke-linecap="round" stroke-linejoin="round"><path d="M0,0c0,-28.679 -26.787,-64.676 -59.555,-76.902c-14.4,-5.39 -25.257,-5.39 -39.684,-0.029c-32.796,12.17 -59.64,48.224 -59.64,76.931v44.905c0,44.791 36.141,78.576 80.36,78.576c43.171,0 78.519,-35.374 78.519,-78.576z" id="path369"></path></g><g transform="translate(299.5537,290.3926)" id="g371" stroke="#ffffff" stroke-width="20.148" stroke-linecap="round" stroke-linejoin="round"><path d="M0,0c69.362,23.856 63.722,-46.153 158.879,0" id="path373"></path></g><g transform="translate(411.0947,181.0664)" id="g375" stroke="#ffffff" stroke-width="20.148" stroke-linecap="round" stroke-linejoin="round"><path d="M0,0v-31.771c38.068,-12.595 89.998,-15.431 90.905,-69.442v-67.853M-64.203,0v-31.771c-38.069,-12.595 -90.027,-15.431 -90.906,-69.442" id="path377"></path></g><g transform="translate(441.1133,140.7573)" id="g379" stroke="#ffffff" stroke-width="20.148" stroke-linecap="round" stroke-linejoin="round"><path d="M0,0l17.971,-77.754l-80.106,-51.003" id="path381"></path></g><g transform="translate(316.8447,140.7573)" id="g383" stroke="#ffffff" stroke-width="20.148" stroke-linecap="round" stroke-linejoin="round"><path d="M0,0l-17.943,-77.754l80.077,-51.003" id="path385"></path></g><g transform="translate(329.6855,114.1772)" id="g387" stroke="#ffffff" stroke-width="20.148" stroke-linecap="round" stroke-linejoin="round"><path d="M0,0l12.188,-25.871l37.105,33.502l-32.087,27.885" id="path389"></path></g><g transform="translate(428.3008,114.1772)" id="g391" stroke="#ffffff" stroke-width="20.148" stroke-linecap="round" stroke-linejoin="round"><path d="M0,0l-12.188,-25.871l-37.134,33.502l32.116,27.487" id="path393"></path></g><g transform="translate(237.5039,121.7231)" id="g395" stroke="#ffffff" stroke-width="20.148" stroke-linecap="round" stroke-linejoin="round"><path d="M0,0l-19.587,131.509" id="path397"></path></g><g transform="translate(28.4814,121.7231)" id="g399" stroke="#ffffff" stroke-width="20.148" stroke-linecap="round" stroke-linejoin="round"><path d="M0,0l19.587,131.509" id="path401"></path></g><g transform="translate(209.498,12)" id="g403" stroke="#ffffff" stroke-width="20.148" stroke-linecap="round" stroke-linejoin="round"><path d="M0,0v55.117c0,12.566 2.041,13.843 -9.978,20.679c-17.857,10.156 -51.305,7.602 -66.527,-7.63c-15.222,15.232 -48.67,17.786 -66.528,7.63c-12.019,-6.836 -9.978,-8.113 -9.978,-20.679v-55.117" id="path405"></path></g><g transform="translate(100.9053,178.1445)" id="g407" stroke="#ffffff" stroke-width="20.148" stroke-linecap="round" stroke-linejoin="round"><path d="M0,0v-28.849c-38.097,-12.595 -90.026,-15.431 -90.905,-69.442v-67.854" id="path409"></path></g><g transform="translate(205.8135,255.104)" id="g411" stroke="#ffffff" stroke-width="20.148" stroke-linecap="round" stroke-linejoin="round"><path d="M0,0v-13.361c0,-26.296 -24.548,-59.315 -54.594,-70.52c-13.21,-4.907 -23.159,-4.935 -36.368,-0.028c-30.075,11.177 -54.68,44.224 -54.68,70.548v18.098" id="path413"></path></g><g transform="translate(48.0684,253.2319)" id="g415" stroke="#ffffff" stroke-width="20.148" stroke-linecap="round" stroke-linejoin="round"><path d="M0,0v37.444c0,46.721 38.211,84.987 84.925,84.987c46.714,0 84.924,-38.266 84.924,-84.987v-37.444c-75.315,10.666 -107.006,33.785 -116.729,41.019c-10.289,-13.9 -24.009,-25.899 -53.12,-41.019z" id="path417"></path></g><g transform="translate(88.0928,12)" id="g419" stroke="#ffffff" stroke-width="20.148" stroke-linecap="round" stroke-linejoin="round"><path d="M0,0h-78.093M167.893,0h-78.093" id="path421"></path></g><g transform="translate(255.9854,12)" id="g423" stroke="#ffffff" stroke-width="20.148" stroke-linecap="round" stroke-linejoin="round"><path d="M0,0h246.015" id="path425"></path></g><g transform="translate(133.0498,12)" id="g427" stroke="#ffffff" stroke-width="20.148" stroke-linecap="round" stroke-linejoin="round"><path d="M0,0h-0.057" id="path429"></path></g></g></g></g></g></g></svg>