<svg version="1.1" xmlns="http://www.w3.org/2000/svg" xmlns:xlink="http://www.w3.org/1999/xlink" width="512" height="512" viewBox="0,0,256,256"><g fill="none" fill-rule="nonzero" stroke="#90591c" stroke-width="15" stroke-linecap="round" stroke-linejoin="round" stroke-miterlimit="10" stroke-dasharray="" stroke-dashoffset="0" font-family="none" font-weight="none" font-size="none" text-anchor="none" style="mix-blend-mode: normal"><g transform="scale(0.5,0.5)"><g><path d="M201,479.5h-178.5v-20c0,-5.523 4.477,-10 10,-10h447c5.523,0 10,4.477 10,10v20h-258.5"></path><path d="M277.5,96.658h188.168l37.488,65.261c3.83,6.667 -0.983,14.981 -8.671,14.981h-296.985l-65,-50.242l-65,50.242h-49.985c-7.688,0 -12.501,-8.314 -8.671,-14.981l37.488,-65.261h201.168"></path><path d="M37.5,336.9v112.6"></path><path d="M37.5,178.9v98"></path><path d="M474.5,366.9v82.6"></path><path d="M474.5,176.9v100"></path><path d="M373.867,96.658v-64.158h50.14v64.158"></path><rect x="107.5" y="176.9" width="50" height="70"></rect><path d="M107.5,216.9h50"></path><path d="M297.5,176.9v70h-50v-70"></path><path d="M247.5,216.9h50"></path><path d="M423.937,176.9v70h-50v-70"></path><path d="M373.937,216.9h50"></path><path d="M138.063,337.142v70h-50v-70"></path><path d="M88.063,377.142h50"></path><path d="M423.937,337.142v70h-50v-70"></path><path d="M373.937,377.142h50"></path><path d="M76.998,276.9h-39.498l-26,45.261c-3.908,6.667 0.556,14.981 8.244,14.981h158.318l77.938,-60.242l77.937,60.242h157.891c7.688,0 12.501,-8.314 8.671,-14.981l-26,-45.261h-367.501"></path><path d="M281,449.5v-112.358h-50v112.358"></path><path d="M178.063,337.142v111.692"></path><path d="M333.937,337.142v111.692"></path></g></g></g></svg>