<svg version="1.1" xmlns="http://www.w3.org/2000/svg" xmlns:xlink="http://www.w3.org/1999/xlink" width="512" height="512" viewBox="0,0,256,256"><g fill="#ffffff" fill-rule="nonzero" stroke="none" stroke-width="1" stroke-linecap="butt" stroke-linejoin="miter" stroke-miterlimit="10" stroke-dasharray="" stroke-dashoffset="0" font-family="none" font-weight="none" font-size="none" text-anchor="none" style="mix-blend-mode: normal"><g transform="translate(0.00008,-0.0001)"><g><g transform="translate(0,0.00206) scale(4.11324,4.11001)"><g><path transform="translate(-4.396,32.056) rotate(-33.70596) scale(1.00012,1.00012)" d="M48.936,22.287h3.606v2h-3.606z"></path><path d="M62.238,19.559c0,-9.524 -7.748,-17.272 -17.272,-17.272h-6.123c-2.161,0 -4.253,-0.633 -6.051,-1.832l-0.681,-0.455l-1.301,1.301c-1.658,1.658 -2.571,3.862 -2.571,6.207c0,3.079 1.594,5.793 4,7.361v11.299c-0.409,-0.601 -0.874,-1.17 -1.399,-1.695l-6.186,-6.186l0.259,-0.259c0.855,-0.856 1.326,-1.995 1.326,-3.206c0,-2.501 -2.035,-4.536 -4.536,-4.536h-1.649c-0.414,-1.161 -1.514,-2 -2.816,-2c-1.573,0 -2.853,1.221 -2.976,2.763c-3.901,1.198 -7.286,3.799 -9.453,7.28c-1.45,0.211 -2.571,1.449 -2.571,2.957c0,0.643 0.208,1.236 0.553,1.725c-0.36,1.391 -0.553,2.825 -0.553,4.275c0,1.271 0.159,2.513 0.434,3.718c-1.481,0.893 -2.434,2.518 -2.434,4.282c0,2.559 1.94,4.651 4.423,4.942l-4.661,16.78l3.25,0.813c0.718,0.179 1.275,0.736 1.455,1.453l0.039,0.158c0.42,1.681 1.924,2.854 3.656,2.854c0.747,0 1.47,-0.219 2.09,-0.633l1.6,-1.067c0.692,-0.461 1.67,-0.365 2.258,0.224l0.222,0.222c0.809,0.809 1.884,1.254 3.027,1.254h18.773l-0.599,-4.796c0.688,0.523 1.542,0.834 2.467,0.792v4.004h14v-24c0,-1.016 -0.393,-1.935 -1.019,-2.641c6.621,-2.57 11.019,-8.924 11.019,-16.086zM51.238,20.287c1.654,0 3,1.346 3,3c0,1.654 -1.346,3 -3,3h-3v8h-7c-3.86,0 -7,-3.14 -7,-7v-11.451c0.874,0.292 1.808,0.451 2.778,0.451h8.222c1.654,0 3,1.346 3,3v1zM48.238,52.287h2v3.816c-1.161,-0.414 -2,-1.514 -2,-2.816zM47.652,50.287l1.364,-1.364c0.452,-0.452 0.86,-0.937 1.222,-1.448v2.813h-2.586zM50.238,41.145c0,2.404 -0.936,4.664 -2.636,6.364l-3.364,3.364l-2.586,-2.586l3.122,-3.122c0.944,-0.944 1.464,-2.2 1.464,-3.535v-3.343c0,-1.103 0.897,-2 2,-2c1.103,0 2,0.897 2,2zM41.238,53.873l-2.586,-2.586l1.586,-1.586l2.586,2.586zM15.221,41.728c-6.404,-1.783 -10.983,-7.729 -10.983,-14.441c0,-1.042 0.11,-2.075 0.321,-3.084c0.219,0.051 0.444,0.084 0.679,0.084c0.395,0 0.77,-0.081 1.116,-0.22c0.346,1.275 1.501,2.22 2.884,2.22c0.771,0 1.468,-0.301 2,-0.78c0.532,0.48 1.229,0.78 2,0.78c0.771,0 1.468,-0.301 2,-0.78c0.299,0.27 0.652,0.476 1.041,0.609c-0.021,0.218 -0.041,0.437 -0.041,0.657v1.515h-1c-2.757,0 -5,2.243 -5,5c0,2.757 2.243,5 5,5h1.023c0.046,0.596 0.186,1.176 0.368,1.744c-0.554,0.486 -1.029,1.058 -1.408,1.696zM9.238,22.287c0.551,0 1,0.449 1,1c0,0.551 -0.449,1 -1,1c-0.551,0 -1,-0.449 -1,-1c0,-0.551 0.449,-1 1,-1zM12.238,23.287c0,-0.551 0.449,-1 1,-1c0.551,0 1,0.449 1,1c0,0.551 -0.449,1 -1,1c-0.551,0 -1,-0.449 -1,-1zM19.238,18.287c0.551,0 1,0.449 1,1c0,0.551 -0.449,1 -1,1c-0.551,0 -1,-0.449 -1,-1c0,-0.551 0.449,-1 1,-1zM19.238,16.287c-0.551,0 -1,-0.449 -1,-1c0,-0.551 0.449,-1 1,-1c0.551,0 1,0.449 1,1c0,0.551 -0.448,1 -1,1zM17.238,22.287c0.551,0 1,0.449 1,1c0,0.551 -0.449,1 -1,1c-0.551,0 -1,-0.449 -1,-1c0,-0.551 0.449,-1 1,-1zM21.238,40.287c2.757,0 5,2.243 5,5c0,2.757 -2.243,5 -5,5c-2.757,0 -5,-2.243 -5,-5c0,-2.757 2.243,-5 5,-5zM21.619,52.267c0.472,-0.026 0.932,-0.097 1.375,-0.213l0.736,0.526c-0.557,0.362 -1.098,0.75 -1.618,1.163zM25.113,51.112c1.54,-1.028 2.647,-2.648 3.001,-4.533l3.279,1.968l4.845,-4.845v-1.414c0,-1.103 0.897,-2 2,-2c1.103,0 2,0.897 2,2c0,1.096 -0.341,2.144 -0.985,3.029l-5.38,7.397c-0.717,0.985 -1.872,1.574 -3.09,1.574c-0.801,0 -1.569,-0.246 -2.221,-0.711zM44.774,36.325c-0.331,0.582 -0.536,1.245 -0.536,1.962v3.343c0,0.79 -0.32,1.563 -0.878,2.121l-2.087,2.087c0.622,-1.08 0.965,-2.289 0.965,-3.551c0,-1.266 -0.603,-2.383 -1.524,-3.117c0.748,-1.587 2.302,-2.677 4.06,-2.845zM40.416,36.245c-0.628,0.598 -1.149,1.306 -1.522,2.108c-0.214,-0.036 -0.431,-0.066 -0.656,-0.066c-2.206,0 -4,1.794 -4,4v0.586l-3.155,3.155l-2.927,-1.756c-0.062,-0.423 -0.16,-0.835 -0.294,-1.23c3.833,-1.928 6.28,-5.785 6.367,-10.122c1.49,1.848 3.692,3.098 6.187,3.325zM29.425,25.887c1.814,1.814 2.813,4.227 2.813,6.793c0,3.673 -2.064,6.935 -5.298,8.56c-1.27,-1.784 -3.35,-2.954 -5.702,-2.954c-1.021,0 -1.99,0.225 -2.865,0.62c-0.088,-0.401 -0.135,-0.81 -0.135,-1.226v-1.395h-3c-1.654,0 -3,-1.346 -3,-3c0,-1.654 1.346,-3 3,-3h3v-3.515c0,-0.229 0.019,-0.458 0.05,-0.685c1.136,-0.428 1.95,-1.517 1.95,-2.8c0,-0.182 -0.023,-0.359 -0.054,-0.532l3.054,-3.054zM24.238,14.822c0,0.677 -0.263,1.313 -0.741,1.792l-1.499,1.499c-0.131,-0.307 -0.32,-0.582 -0.54,-0.826c0.48,-0.532 0.78,-1.229 0.78,-2c0,-1.383 -0.945,-2.539 -2.22,-2.884c0.015,-0.037 0.022,-0.078 0.036,-0.116h1.649c1.398,0 2.535,1.137 2.535,2.535zM17.238,10.287c0.551,0 1,0.449 1,1c0,0.551 -0.449,1 -1,1c-0.551,0 -1,-0.449 -1,-1c0,-0.551 0.449,-1 1,-1zM14.769,12.984c0.398,0.577 0.996,0.999 1.69,1.187c-0.139,0.346 -0.22,0.721 -0.22,1.116c0,0.771 0.301,1.468 0.78,2c-0.48,0.532 -0.78,1.229 -0.78,2c0,0.395 0.081,0.77 0.22,1.116c-0.461,0.125 -0.876,0.354 -1.22,0.665c-0.532,-0.48 -1.229,-0.78 -2,-0.78c-0.771,0 -1.468,0.301 -2,0.78c-0.532,-0.48 -1.229,-0.78 -2,-0.78c-0.395,0 -0.77,0.081 -1.116,0.22c-0.193,-0.711 -0.631,-1.321 -1.23,-1.719c1.901,-2.753 4.692,-4.808 7.876,-5.805zM5.238,20.287c0.551,0 1,0.449 1,1c0,0.551 -0.449,1 -1,1c-0.551,0 -1,-0.449 -1,-1c0,-0.551 0.449,-1 1,-1zM2.238,35.287c0,-0.872 0.391,-1.683 1.023,-2.244c0.678,1.859 1.679,3.577 2.932,5.087c-0.304,0.102 -0.624,0.157 -0.955,0.157c-1.654,0 -3,-1.346 -3,-3zM15.984,59.619l-0.222,-0.222c-1.247,-1.246 -3.315,-1.451 -4.781,-0.474l-1.6,1.067c-0.292,0.194 -0.63,0.297 -0.981,0.297c-0.813,0 -1.519,-0.551 -1.716,-1.339l-0.039,-0.158c-0.359,-1.436 -1.474,-2.551 -2.91,-2.91l-1.258,-0.314l4.315,-15.536c0.293,-0.096 0.579,-0.213 0.849,-0.361c1.904,1.794 4.221,3.16 6.814,3.922c-0.136,0.544 -0.216,1.11 -0.216,1.695c0,3.236 2.21,5.958 5.198,6.756l1.688,5.063l-1.701,2.268c-0.795,1.06 -2.504,1.182 -3.44,0.246zM21.238,60.287l2.114,-2.819l-0.562,-1.688c0.843,-0.723 1.748,-1.372 2.704,-1.939l1.906,1.362c0.993,0.709 2.163,1.084 3.383,1.084c0.966,0 1.903,-0.247 2.736,-0.691l0.586,4.691zM38.067,56.287c-1.008,0 -1.829,-0.82 -1.829,-1.829c0,-0.488 0.19,-0.947 0.536,-1.293l0.464,-0.464l2.586,2.586l-0.464,0.464c-0.346,0.345 -0.805,0.536 -1.293,0.536zM40.238,57.612c0.19,-0.131 0.369,-0.281 0.536,-0.447l1.464,-1.464v4.586h-2zM44.238,60.287v-6.586l1.414,-1.414h0.586v1c0,2.414 1.721,4.434 4,4.899v2.101zM50.238,33.892v-5.605h1c2.757,0 5,-2.243 5,-5c0,-2.757 -2.243,-5 -5,-5h-1.101c-0.464,-2.279 -2.485,-4 -4.899,-4h-8.222c-3.738,0 -6.778,-3.041 -6.778,-6.778c0,-1.811 0.705,-3.513 1.985,-4.793l0.161,-0.161c1.962,1.135 4.179,1.732 6.459,1.732h6.123c8.421,0 15.272,6.851 15.272,15.272c0,6.427 -3.999,12.129 -10,14.333z"></path><path d="M38.238,18.287h-2c0,2.206 1.794,4 4,4h2v-2h-2c-1.103,0 -2,-0.897 -2,-2z"></path><path d="M20.238,28.287h2c2.206,0 4,-1.794 4,-4h-2c0,1.103 -0.897,2 -2,2h-2z"></path><path transform="translate(-20.688,27.918) rotate(-56.29404) scale(1.00012,1.00012)" d="M14.738,31.484h2v3.606h-2z"></path><path d="M21.238,48.287c1.654,0 3,-1.346 3,-3c0,-1.654 -1.346,-3 -3,-3c-1.654,0 -3,1.346 -3,3c0,1.654 1.346,3 3,3zM21.238,44.287c0.551,0 1,0.449 1,1c0,0.551 -0.449,1 -1,1c-0.551,0 -1,-0.449 -1,-1c0,-0.551 0.449,-1 1,-1z"></path><path transform="translate(-42.057,47.19) rotate(-79.69003) scale(1.00015,1.00015)" d="M1.648,47.787h11.18v2h-11.18z"></path><path d="M10.238,45.287h2v11h-2z"></path></g></g></g></g></g></svg>