<svg version="1.1" xmlns="http://www.w3.org/2000/svg" xmlns:xlink="http://www.w3.org/1999/xlink" width="512" height="512" viewBox="0,0,256,256"><g fill="#90591c" fill-rule="nonzero" stroke="none" stroke-width="1" stroke-linecap="butt" stroke-linejoin="miter" stroke-miterlimit="10" stroke-dasharray="" stroke-dashoffset="0" font-family="none" font-weight="none" font-size="none" text-anchor="none" style="mix-blend-mode: normal"><g transform="scale(4,4)"><g><path d="M62,31h-1v-7c0,-0.553 -0.448,-1 -1,-1h-1v-4h-2v4h-1c-0.552,0 -1,0.447 -1,1v7h-4v-3c0,-0.553 -0.448,-1 -1,-1h-12h-12c-0.552,0 -1,0.447 -1,1v3h-4v-7c0,-0.553 -0.448,-1 -1,-1h-1c0,-1.352 -0.898,-2.497 -2.129,-2.871c-0.374,-1.231 -1.519,-2.129 -2.871,-2.129c-1.352,0 -2.497,0.898 -2.871,2.129c-1.231,0.374 -2.129,1.519 -2.129,2.871h-1c-0.552,0 -1,0.447 -1,1v7h-5c-0.552,0 -1,0.447 -1,1v4c0,0.553 0.448,1 1,1h1v25c0,0.553 0.448,1 1,1h56c0.552,0 1,-0.447 1,-1v-25h1c0.552,0 1,-0.447 1,-1v-4c0,-0.553 -0.448,-1 -1,-1zM57,25h2v6h-2zM49,31h-10v-2h10zM27,29h10v2h-10zM12,22c0.552,0 1,-0.447 1,-1c0,-0.552 0.449,-1 1,-1c0.551,0 1,0.448 1,1c0,0.553 0.448,1 1,1c0.551,0 1,0.448 1,1h-6c0,-0.552 0.449,-1 1,-1zM9,25h10v6h-10zM5,37h26v24h-26zM59,61h-26v-24h26zM61,35h-1h-56h-1v-2h5h12h6h12h12h6h4h1z"></path><path d="M28,47h-20c-0.552,0 -1,0.447 -1,1v10c0,0.553 0.448,1 1,1h20c0.552,0 1,-0.447 1,-1v-10c0,-0.553 -0.448,-1 -1,-1zM27,49v4h-18v-4zM9,57v-2h18v2z"></path><path d="M10,45c1.654,0 3,-1.346 3,-3c0,-1.654 -1.346,-3 -3,-3c-1.654,0 -3,1.346 -3,3c0,1.654 1.346,3 3,3zM10,41c0.551,0 1,0.448 1,1c0,0.552 -0.449,1 -1,1c-0.551,0 -1,-0.448 -1,-1c0,-0.552 0.449,-1 1,-1z"></path><path d="M18,45c1.654,0 3,-1.346 3,-3c0,-1.654 -1.346,-3 -3,-3c-1.654,0 -3,1.346 -3,3c0,1.654 1.346,3 3,3zM18,41c0.551,0 1,0.448 1,1c0,0.552 -0.449,1 -1,1c-0.551,0 -1,-0.448 -1,-1c0,-0.552 0.449,-1 1,-1z"></path><path d="M26,45c1.654,0 3,-1.346 3,-3c0,-1.654 -1.346,-3 -3,-3c-1.654,0 -3,1.346 -3,3c0,1.654 1.346,3 3,3zM26,41c0.551,0 1,0.448 1,1c0,0.552 -0.449,1 -1,1c-0.551,0 -1,-0.448 -1,-1c0,-0.552 0.449,-1 1,-1z"></path><path d="M36,59h20c0.552,0 1,-0.447 1,-1v-10c0,-0.553 -0.448,-1 -1,-1h-20c-0.552,0 -1,0.447 -1,1v10c0,0.553 0.448,1 1,1zM37,57v-2h18v2zM55,49v4h-18v-4z"></path><path d="M38,45c1.654,0 3,-1.346 3,-3c0,-1.654 -1.346,-3 -3,-3c-1.654,0 -3,1.346 -3,3c0,1.654 1.346,3 3,3zM38,41c0.551,0 1,0.448 1,1c0,0.552 -0.449,1 -1,1c-0.551,0 -1,-0.448 -1,-1c0,-0.552 0.449,-1 1,-1z"></path><path d="M46,45c1.654,0 3,-1.346 3,-3c0,-1.654 -1.346,-3 -3,-3c-1.654,0 -3,1.346 -3,3c0,1.654 1.346,3 3,3zM46,41c0.551,0 1,0.448 1,1c0,0.552 -0.449,1 -1,1c-0.551,0 -1,-0.448 -1,-1c0,-0.552 0.449,-1 1,-1z"></path><path d="M54,45c1.654,0 3,-1.346 3,-3c0,-1.654 -1.346,-3 -3,-3c-1.654,0 -3,1.346 -3,3c0,1.654 1.346,3 3,3zM54,41c0.551,0 1,0.448 1,1c0,0.552 -0.449,1 -1,1c-0.551,0 -1,-0.448 -1,-1c0,-0.552 0.449,-1 1,-1z"></path><path d="M8,13h48c0.369,0 0.708,-0.203 0.882,-0.528c0.174,-0.325 0.155,-0.72 -0.05,-1.026l-4,-6c-0.186,-0.279 -0.498,-0.446 -0.832,-0.446h-16v-4h-2v4h-4v-4h-2v4h-16c-0.334,0 -0.646,0.167 -0.832,0.445l-4,6c-0.205,0.307 -0.224,0.701 -0.05,1.026c0.174,0.326 0.513,0.529 0.882,0.529zM12.535,7h16.465h6h16.465l2.667,4h-44.263z"></path></g></g></g></svg>