<svg version="1.1" xmlns="http://www.w3.org/2000/svg" xmlns:xlink="http://www.w3.org/1999/xlink" width="682.66669" height="682.66669" viewBox="0,0,256,256"><defs><clipPath id="clip-1"><path d="M0,512h512v-512h-512z" id="clipPath2498" stroke="none" stroke-width="1" stroke-linecap="butt" stroke-linejoin="miter"></path></clipPath></defs><g fill="none" fill-rule="nonzero" stroke="none" stroke-width="none" stroke-linecap="none" stroke-linejoin="none" stroke-miterlimit="10" stroke-dasharray="" stroke-dashoffset="0" font-family="none" font-weight="none" font-size="none" text-anchor="none" style="mix-blend-mode: normal"><g transform="translate(0.00001,0) scale(0.375,0.375)"><g transform="translate(0,682.66667) scale(1.33333,-1.33333)" id="g2490"><g id="g2492"><g clip-path="url(#clip-1)" id="g2494"><g transform="translate(76.041,463.5884)" id="g2500" stroke="#ffffff" stroke-width="15" stroke-linecap="round" stroke-linejoin="round"><path d="M0,0h-7.431c-33.75,0 -61.109,-27.37 -61.109,-61.12v-295.689c0,-33.75 27.359,-61.12 61.109,-61.12h281.32" id="path2502"></path></g><g transform="translate(435.959,463.5884)" id="g2504" stroke="#ffffff" stroke-width="15" stroke-linecap="round" stroke-linejoin="round"><path d="M0,0h7.431c33.75,0 61.109,-27.37 61.109,-61.12v-295.689c0,-33.75 -27.359,-61.12 -61.109,-61.12h-12.281" id="path2506"></path></g><g transform="translate(384.0898,463.5884)" id="g2508" stroke="#ffffff" stroke-width="15" stroke-linecap="round" stroke-linejoin="round"><path d="M0,0h-256.18" id="path2510"></path></g><g transform="translate(101.9766,504.498)" id="g2512" stroke="#ffffff" stroke-width="15" stroke-linecap="round" stroke-linejoin="round"><path d="M0,0v0c-14.325,0 -25.938,-11.613 -25.938,-25.938v-45.891c0,-14.325 11.613,-25.938 25.938,-25.938c14.325,0 25.937,11.613 25.937,25.938v45.891c0,14.325 -11.612,25.938 -25.937,25.938z" id="path2514"></path></g><g transform="translate(410.0234,504.498)" id="g2516" stroke="#ffffff" stroke-width="15" stroke-linecap="round" stroke-linejoin="round"><path d="M0,0v0c-14.325,0 -25.937,-11.613 -25.937,-25.938v-45.891c0,-14.325 11.612,-25.938 25.937,-25.938c14.325,0 25.938,11.613 25.938,25.938v45.891c0,14.325 -11.613,25.938 -25.938,25.938z" id="path2518"></path></g><g transform="translate(74.3604,344.8198)" id="g2520" stroke="#ffffff" stroke-width="15" stroke-linecap="round" stroke-linejoin="round"><path d="M0,0h-66.86" id="path2522"></path></g><g transform="translate(504.5,344.8198)" id="g2524" stroke="#ffffff" stroke-width="15" stroke-linecap="round" stroke-linejoin="round"><path d="M0,0h-400.16" id="path2526"></path></g><g transform="translate(184.4844,281.8027)" id="g2528" stroke="#ffffff" stroke-width="15" stroke-linecap="round" stroke-linejoin="round"><path d="M0,0c0,14.692 -11.91,26.603 -26.603,26.603c-14.693,0 -26.603,-11.911 -26.603,-26.603c0,-14.692 11.91,-26.603 26.603,-26.603c14.693,0 26.603,11.911 26.603,26.603z" id="path2530"></path></g><g transform="translate(265.3447,281.8027)" id="g2532" stroke="#ffffff" stroke-width="15" stroke-linecap="round" stroke-linejoin="round"><path d="M0,0c0,14.692 -11.91,26.603 -26.604,26.603c-14.692,0 -26.602,-11.911 -26.602,-26.603c0,-14.692 11.91,-26.603 26.602,-26.603c14.694,0 26.604,11.911 26.604,26.603z" id="path2534"></path></g><g transform="translate(346.2051,281.8027)" id="g2536" stroke="#ffffff" stroke-width="15" stroke-linecap="round" stroke-linejoin="round"><path d="M0,0c0,14.692 -11.911,26.603 -26.604,26.603c-14.692,0 -26.602,-11.911 -26.602,-26.603c0,-14.692 11.91,-26.603 26.602,-26.603c14.693,0 26.604,11.911 26.604,26.603z" id="path2538"></path></g><g transform="translate(427.0654,281.8027)" id="g2540" stroke="#ffffff" stroke-width="15" stroke-linecap="round" stroke-linejoin="round"><path d="M0,0c0,14.692 -11.911,26.603 -26.604,26.603c-14.692,0 -26.603,-11.911 -26.603,-26.603c0,-14.692 11.911,-26.603 26.603,-26.603c14.693,0 26.604,11.911 26.604,26.603z" id="path2542"></path></g><g transform="translate(103.624,201.6729)" id="g2544" stroke="#ffffff" stroke-width="15" stroke-linecap="round" stroke-linejoin="round"><path d="M0,0c0,14.692 -11.91,26.603 -26.603,26.603c-14.692,0 -26.603,-11.911 -26.603,-26.603c0,-14.692 11.911,-26.603 26.603,-26.603c14.693,0 26.603,11.911 26.603,26.603z" id="path2546"></path></g><g transform="translate(184.4844,201.6729)" id="g2548" stroke="#ffffff" stroke-width="15" stroke-linecap="round" stroke-linejoin="round"><path d="M0,0c0,14.692 -11.91,26.603 -26.603,26.603c-14.693,0 -26.603,-11.911 -26.603,-26.603c0,-14.692 11.91,-26.603 26.603,-26.603c14.693,0 26.603,11.911 26.603,26.603z" id="path2550"></path></g><g transform="translate(265.3447,201.6729)" id="g2552" stroke="#ffffff" stroke-width="15" stroke-linecap="round" stroke-linejoin="round"><path d="M0,0c0,14.692 -11.91,26.603 -26.604,26.603c-14.692,0 -26.602,-11.911 -26.602,-26.603c0,-14.692 11.91,-26.603 26.602,-26.603c14.694,0 26.604,11.911 26.604,26.603z" id="path2554"></path></g><g transform="translate(346.2051,201.6729)" id="g2556" stroke="#ffffff" stroke-width="15" stroke-linecap="round" stroke-linejoin="round"><path d="M0,0c0,14.692 -11.911,26.603 -26.604,26.603c-14.692,0 -26.602,-11.911 -26.602,-26.603c0,-14.692 11.91,-26.603 26.602,-26.603c14.693,0 26.604,11.911 26.604,26.603z" id="path2558"></path></g><g transform="translate(427.0654,201.6729)" id="g2560" stroke="#ffffff" stroke-width="15" stroke-linecap="round" stroke-linejoin="round"><path d="M0,0c0,14.692 -11.911,26.603 -26.604,26.603c-14.692,0 -26.603,-11.911 -26.603,-26.603c0,-14.692 11.911,-26.603 26.603,-26.603c14.693,0 26.604,11.911 26.604,26.603z" id="path2562"></path></g><g transform="translate(103.624,121.543)" id="g2564" stroke="#ffffff" stroke-width="15" stroke-linecap="round" stroke-linejoin="round"><path d="M0,0c0,14.692 -11.91,26.603 -26.603,26.603c-14.692,0 -26.603,-11.911 -26.603,-26.603c0,-14.692 11.911,-26.603 26.603,-26.603c14.693,0 26.603,11.911 26.603,26.603z" id="path2566"></path></g><g transform="translate(184.4844,121.543)" id="g2568" stroke="#ffffff" stroke-width="15" stroke-linecap="round" stroke-linejoin="round"><path d="M0,0c0,14.692 -11.91,26.603 -26.603,26.603c-14.693,0 -26.603,-11.911 -26.603,-26.603c0,-14.692 11.91,-26.603 26.603,-26.603c14.693,0 26.603,11.911 26.603,26.603z" id="path2570"></path></g><g transform="translate(265.3447,121.543)" id="g2572" stroke="#ffffff" stroke-width="15" stroke-linecap="round" stroke-linejoin="round"><path d="M0,0c0,14.692 -11.91,26.603 -26.604,26.603c-14.692,0 -26.602,-11.911 -26.602,-26.603c0,-14.692 11.91,-26.603 26.602,-26.603c14.694,0 26.604,11.911 26.604,26.603z" id="path2574"></path></g><g transform="translate(465.3301,106.27)" id="g2576" stroke="#ffffff" stroke-width="15" stroke-linecap="round" stroke-linejoin="round"><path d="M0,0l13.939,24.67c7.601,13.46 2.851,30.52 -10.609,38.12c-13.45,7.6 -30.52,2.86 -38.12,-10.6l-40.981,-72.57l-21.009,27.09c-9.47,12.21 -27.04,14.44 -39.25,4.97c-12.22,-9.47 -14.44,-27.05 -4.97,-39.26l46.78,-60.35c5.32,-6.86 13.5,-10.83 22.11,-10.83c0.68,0 1.36,0.02 2.04,0.07c9.34,0.68 17.72,5.99 22.33,14.15l33,58.43" id="path2578"></path></g></g></g></g></g></g></svg>