<svg version="1.1" xmlns="http://www.w3.org/2000/svg" xmlns:xlink="http://www.w3.org/1999/xlink" width="512" height="512" viewBox="0,0,256,256"><g fill="#ffffff" fill-rule="nonzero" stroke="none" stroke-width="1" stroke-linecap="butt" stroke-linejoin="miter" stroke-miterlimit="10" stroke-dasharray="" stroke-dashoffset="0" font-family="none" font-weight="none" font-size="none" text-anchor="none" style="mix-blend-mode: normal"><g transform="translate(0,0.10009) scale(8,8)"><path d="M21.286,11.429c0.0004,-2.13808 -1.28723,-4.06585 -3.26244,-4.88434c-1.97521,-0.81849 -4.24898,-0.36649 -5.76097,1.14522c-1.51199,1.51171 -1.96442,3.78539 -1.14631,5.76075c0.81811,1.97537 2.74564,3.26337 4.88372,3.26337c2.91762,-0.00331 5.28214,-2.36738 5.286,-5.285zM12.714,11.429c-0.0004,-1.32915 0.79995,-2.52766 2.02781,-3.03658c1.22786,-0.50893 2.64139,-0.22804 3.58139,0.71167c0.94,0.93971 1.22132,2.35316 0.71276,3.58117c-0.50855,1.22802 -1.70681,2.02873 -3.03596,2.02873c-1.8135,-0.0022 -3.28325,-1.4715 -3.286,-3.285z"></path><path d="M20.938,21.544l0.248,-0.3c0.578,-0.711 1.229,-1.406 1.859,-2.078l0.62,-0.666c3.84314,-4.15381 3.67589,-10.61363 -0.37706,-14.56299c-4.05295,-3.94937 -10.51493,-3.94937 -14.56788,0c-4.05295,3.94937 -4.22021,10.40918 -0.37706,14.56299l0.638,0.691c0.654,0.7 1.33,1.43 1.936,2.177l0.147,0.18c-3.534,0.81 -5.664,2.452 -5.664,4.452c0,3.248 5.461,5 10.6,5c5.139,0 10.6,-1.752 10.6,-5c0,-2 -2.129,-3.641 -5.662,-4.456zM10.447,17.825l-0.633,-0.684c-2.15552,-2.32192 -2.82361,-5.65801 -1.72846,-8.63092c1.09515,-2.97291 3.76778,-5.07836 6.91446,-5.44708c0.33717,-0.04061 0.6764,-0.06165 1.016,-0.063c2.06419,-0.00636 4.05725,0.75373 5.593,2.133c1.68639,1.50313 2.69839,3.62061 2.80876,5.87696c0.11037,2.25635 -0.69013,4.46249 -2.22176,6.12304l-0.611,0.655c-0.653,0.7 -1.328,1.418 -1.948,2.18l-3.637,4.452l-3.534,-4.32c-0.645,-0.795 -1.343,-1.547 -2.019,-2.275zM16,29c-5.25,0 -8.6,-1.777 -8.6,-3c0,-0.93 1.907,-2.146 5.105,-2.694l2.721,3.327c0.18993,0.23217 0.47404,0.36681 0.774,0.36681c0.29996,0 0.58407,-0.13465 0.774,-0.36681l2.726,-3.327c3.2,0.548 5.1,1.764 5.1,2.694c0,1.223 -3.35,3 -8.6,3z"></path></g></g></svg>