<svg version="1.1" xmlns="http://www.w3.org/2000/svg" xmlns:xlink="http://www.w3.org/1999/xlink" width="512" height="512" viewBox="0,0,256,256"><g fill="#ffffff" fill-rule="nonzero" stroke="none" stroke-width="1" stroke-linecap="butt" stroke-linejoin="miter" stroke-miterlimit="10" stroke-dasharray="" stroke-dashoffset="0" font-family="none" font-weight="none" font-size="none" text-anchor="none" style="mix-blend-mode: normal"><g transform="translate(-0.00228,0.00109) scale(4,4)"><path d="M54.374,32.91211c-0.01741,-0.5041 -0.40774,-0.91621 -0.91015,-0.96094c-5.13282,-0.45508 -9.05567,0.59766 -11.6709,3.13672c-1.95724,1.99928 -3.11508,4.64577 -3.25505,7.44011c-1.36761,1.31364 -2.5701,2.78899 -3.5809,4.39345v-11.73694c0.52622,-2.13095 1.61905,-4.07989 3.16272,-5.64032c1.54792,0.7278 3.22993,1.12674 4.93982,1.17163c1.27173,0.02104 2.52574,-0.30005 3.63086,-0.92969c2.94043,-1.72168 4.41016,-5.68066 4.36816,-11.7666c-0.00309,-0.46174 -0.32194,-0.86131 -0.77148,-0.9668c-0.248,-0.05664 -6.127,-1.39257 -10.07422,1.8711c-2.30426,1.90655 -3.41388,4.9386 -3.32538,8.99621c-0.70504,0.75285 -1.35048,1.55938 -1.93048,2.4123v-8.73859c0.0183,-1.26263 0.14426,-2.52141 0.37653,-3.76263c2.32445,-0.09787 4.52779,-1.06342 6.17526,-2.70612c2.12988,-2.27246 2.82812,-5.73437 2.07617,-10.28809c-0.07948,-0.50819 -0.53474,-0.87097 -1.04785,-0.835c-0.28516,0.01758 -7.01758,0.47852 -9.63184,4.77051c-1.38672,2.27637 -1.34228,5.12695 0.13282,8.47266c0.06683,0.14804 0.16888,0.27747 0.29724,0.377c-0.23237,1.30502 -0.35888,2.62669 -0.3783,3.95209v4.81634c-0.58153,-0.77767 -1.21237,-1.51723 -1.88861,-2.21411c0.22381,-2.40668 -0.55771,-4.79875 -2.15924,-6.60907c-3.04395,-3.28418 -8.13232,-3.25488 -8.34863,-3.26465c-0.2688,0.00319 -0.52501,0.1144 -0.71091,0.30857c-0.1859,0.19417 -0.28587,0.45498 -0.27737,0.72366c0.18017,5.62891 1.60644,9.207 4.23925,10.63672c0.83375,0.44654 1.76666,0.6756 2.71241,0.666c1.16796,-0.02224 2.3182,-0.28969 3.37616,-0.785c1.31467,1.31259 2.35397,2.87452 3.05691,4.59415v13.843c-1.14509,-1.70571 -2.48973,-3.26861 -4.00537,-4.65551c0.36447,-2.89996 -0.47931,-5.82222 -2.3335,-8.08155c-2.96142,-3.32226 -8.3955,-4.38769 -16.15136,-3.17285c-0.53309,0.08402 -0.90341,0.57577 -0.83692,1.11133c0.03711,0.30176 0.97608,7.42578 6.36475,11.19141c2.19069,1.50263 4.79719,2.28096 7.45312,2.22558c1.49359,-0.01171 2.98101,-0.19321 4.4336,-0.541c0.23349,-0.05663 0.43862,-0.19578 0.57757,-0.39179c1.83254,1.83397 3.35206,3.95594 4.49811,6.2815v9.7431h-7.09518c-0.55228,0 -1,0.44772 -1,1c0,0.55228 0.44772,1 1,1h16.1831c0.55228,0 1,-0.44772 1,-1c0,-0.55228 -0.44772,-1 -1,-1h-7.08792v-6.47882c0.94799,-2.63359 2.46727,-5.02465 4.44879,-7.00153c1.87328,0.88409 3.90687,1.37779 5.977,1.45105c1.56135,0.03116 3.09541,-0.4122 4.39942,-1.27148c4.83205,-3.24222 4.60451,-11.43945 4.59179,-11.78711zM41.48047,20.4707c2.43066,-2.01855 6.00879,-1.81347 7.57324,-1.60254c-0.08887,4.77247 -1.24707,7.94141 -3.36719,9.18848c-2.004,1.17822 -4.54779,0.52832 -6.04388,-0.0459c1.69432,-1.53706 3.54299,-2.89486 5.51654,-4.05174c0.48262,-0.26809 0.65682,-0.87647 0.38923,-1.35937c-0.26759,-0.4829 -0.87579,-0.65773 -1.35896,-0.39063c-1.85821,1.07306 -3.61055,2.31981 -5.23352,3.72352c0.07631,-2.08518 0.98571,-4.05264 2.52454,-5.46182zM24.75635,24.208c-1.77832,-0.97168 -2.853,-3.6709 -3.13135,-7.835c2.17731,0.16286 4.23306,1.06692 5.82471,2.56152c0.82368,0.91233 1.35525,2.05044 1.52618,3.26764c-1.06796,-0.92564 -2.1921,-1.78439 -3.366,-2.57135c-0.46302,-0.30109 -1.08246,-0.16981 -1.38355,0.29322c-0.30109,0.46302 -0.16981,1.08246 0.29322,1.38355c1.3421,0.91277 2.61839,1.91872 3.81944,3.01043c-1.15861,0.45713 -2.45427,0.41735 -3.58265,-0.11zM26.813,40.55176c-3.86817,0.78027 -7.11621,0.27344 -9.66211,-1.501c-3.57617,-2.49219 -4.91992,-6.90137 -5.355,-8.84277c6.48242,-0.86621 10.95947,0.02832 13.32031,2.665c1.2095,1.44431 1.87253,3.26799 1.87305,5.15185c-2.30523,-1.76266 -4.91104,-3.09261 -7.69092,-3.92529c-0.53556,-0.13497 -1.07914,0.18978 -1.21411,0.72534c-0.13497,0.53556 0.18978,1.07914 0.72534,1.21411c2.94045,0.9323 5.66542,2.44173 8.01544,4.43994c-0.004,0.0232 -0.00811,0.05072 -0.012,0.07282zM34.61035,9.81738c1.57324,-2.58886 5.38184,-3.44726 7.13672,-3.71093c0.415,3.4248 -0.15137,5.99218 -1.68652,7.63964c-1.12267,1.12207 -2.59258,1.83038 -4.16974,2.00928c0.26373,-0.85045 0.68396,-1.64418 1.23907,-2.34037c0.25943,-0.24673 0.36719,-0.61332 0.28253,-0.9612c-0.08465,-0.34787 -0.3488,-0.62396 -0.6926,-0.7239c-0.34379,-0.09994 -0.71479,-0.00849 -0.97274,0.23979c-0.68058,0.74767 -1.20555,1.62332 -1.54431,2.57592c-0.52799,-1.56413 -0.38029,-3.27753 0.40759,-4.72823zM48.668,43.03906c-1.8526,1.2425 -4.43237,1.222 -7.66095,-0.02386c2.32636,-1.99731 4.94149,-3.63119 7.75662,-4.8462c0.51481,-0.19984 0.77016,-0.77918 0.57032,-1.29399c-0.19984,-0.51481 -0.77918,-0.77016 -1.29399,-0.57032c-2.54507,1.06615 -4.93765,2.46486 -7.11524,4.1596c0.39233,-1.49825 1.17828,-2.86429 2.27637,-3.95648c2.0293,-1.96 5.12012,-2.84375 9.16309,-2.62988c-0.08004,2.05371 -0.59859,7.08207 -3.69622,9.16113z"></path></g></g></svg>