<svg version="1.1" xmlns="http://www.w3.org/2000/svg" xmlns:xlink="http://www.w3.org/1999/xlink" width="512" height="512" viewBox="0,0,256,256"><g fill="#90591c" fill-rule="nonzero" stroke="none" stroke-width="1" stroke-linecap="butt" stroke-linejoin="miter" stroke-miterlimit="10" stroke-dasharray="" stroke-dashoffset="0" font-family="none" font-weight="none" font-size="none" text-anchor="none" style="mix-blend-mode: normal"><g transform="translate(1.69849,0.02592) scale(4,4)"><path d="M19.41,39.93c2.30188,-1.86736 3.17812,-4.98208 2.18747,-7.7757c-0.99065,-2.79362 -3.6334,-4.66047 -6.59747,-4.66047c-2.96407,0 -5.60682,1.86685 -6.59747,4.66047c-0.99065,2.79362 -0.11441,5.90834 2.18747,7.7757c-1.6962,0.69976 -2.93068,2.20065 -3.29,4l-3.78,18.87c-0.06084,0.29772 0.017,0.60695 0.21153,0.84039c0.19453,0.23344 0.48466,0.36576 0.78847,0.35961h21c0.30381,0.00615 0.59393,-0.12617 0.78847,-0.35961c0.19453,-0.23344 0.27237,-0.54267 0.21153,-0.84039l-3.82,-18.88c-0.36235,-1.79558 -1.59636,-3.29215 -3.29,-3.99zM10,34.5c0,-2.76142 2.23858,-5 5,-5c2.76142,0 5,2.23858 5,5c0,2.76142 -2.23858,5 -5,5c-2.76142,0 -5,-2.23858 -5,-5zM5.72,62l3.54,-17.69c0.32854,-1.63381 1.76349,-2.80938 3.43,-2.81h4.62c1.66651,0.00062 3.10146,1.17619 3.43,2.81l3.54,17.69z"></path><path d="M58.77,41.06c-0.75946,-0.98656 -1.93499,-1.56323 -3.18,-1.56h-1.7c2.03681,-1.9885 2.66663,-5.01238 1.59311,-7.64872c-1.07352,-2.63634 -3.63658,-4.36006 -6.48311,-4.36006c-2.84653,0 -5.40959,1.72373 -6.48311,4.36006c-1.07352,2.63634 -0.4437,5.66021 1.59311,7.64872h-1.7c-1.23663,0.00092 -2.4033,0.57377 -3.16021,1.55169c-0.75691,0.97792 -1.01895,2.25095 -0.70979,3.44831l5,18.73c0.12066,0.44922 0.53513,0.75592 1,0.74h9c0.46487,0.01592 0.87934,-0.29078 1,-0.74l5,-18.73c0.28968,-1.20404 0.00534,-2.47435 -0.77,-3.44zM44,34.5c0,-2.76142 2.23858,-5 5,-5c2.76142,0 5,2.23858 5,5c0,2.76142 -2.23858,5 -5,5c-2.76142,0 -5,-2.23858 -5,-5zM57.53,44l-4.8,18h-7.46l-4.8,-18c-0.16218,-0.6023 -0.03407,-1.24579 0.34643,-1.74005c0.3805,-0.49426 0.96982,-0.78269 1.59357,-0.77995h13.18c0.62375,-0.00274 1.21307,0.28569 1.59357,0.77995c0.3805,0.49426 0.50861,1.13774 0.34643,1.74005z"></path><path d="M32.15,26c-0.55228,0 -1,0.44772 -1,1v36c0,0.55228 0.44772,1 1,1c0.55228,0 1,-0.44772 1,-1v-36c0,-0.55228 -0.44772,-1 -1,-1z"></path><path d="M9.77,23h44.46c1.35127,0.02223 2.52133,-0.9339 2.76875,-2.26251c0.24741,-1.32861 -0.50005,-2.64183 -1.76875,-3.10749l-22.23,-8.32v-1.45c2.01428,-0.5201 3.29364,-2.49737 2.94263,-4.54789c-0.35101,-2.05052 -2.2152,-3.48967 -4.28779,-3.31017c-2.07259,0.1795 -3.66159,1.91773 -3.65484,3.99806c0,0.55228 0.44772,1 1,1c0.55228,0 1,-0.44772 1,-1c0.00078,-1.03518 0.79134,-1.89869 1.82243,-1.9906c1.03109,-0.09191 1.96192,0.61817 2.14577,1.63689c0.18385,1.01872 -0.44003,2.00938 -1.4382,2.28371c-0.89622,0.21668 -1.52816,1.01796 -1.53,1.94v1.44l-22.2,8.32c-1.26869,0.46566 -2.01616,1.77887 -1.76875,3.10749c0.24741,1.32861 1.41748,2.28474 2.76875,2.26251zM9.5,19.5l22.5,-8.43l22.5,8.43c0.30008,0.11842 0.49802,0.4074 0.5,0.73c-0.00539,0.42301 -0.34699,0.76461 -0.77,0.77h-44.46c-0.42301,-0.00539 -0.76461,-0.34699 -0.77,-0.77c0.00198,-0.3226 0.19992,-0.61158 0.5,-0.73z"></path></g></g></svg>