<svg version="1.1" xmlns="http://www.w3.org/2000/svg" xmlns:xlink="http://www.w3.org/1999/xlink" width="512" height="512" viewBox="0,0,256,256"><g fill="#ffffff" fill-rule="nonzero" stroke="none" stroke-width="1" stroke-linecap="butt" stroke-linejoin="miter" stroke-miterlimit="10" stroke-dasharray="" stroke-dashoffset="0" font-family="none" font-weight="none" font-size="none" text-anchor="none" style="mix-blend-mode: normal"><g transform="translate(-0.01929,0.04659) scale(5.33333,5.33333)"><g id="Stream_in_field"><path d="M1,27.8c6,0 16.76,-1.45 20.4,-6.23c3.64,-4.78 -1.87,-8.17 2.6,-13.06c3.76,-4.12 12.51,-5.51 22.83,-3.73c0.55228,0.09389 1.07611,-0.27772 1.17,-0.83c0.09389,-0.55228 -0.27772,-1.07611 -0.83,-1.17c-11.17,-1.94 -20.37,-0.31 -24.65,4.38c-2.1954,2.36302 -2.95839,5.72021 -2,8.8c2.11,7.65 -11.63,9.78 -19.52,9.84c-0.55228,0 -1,0.44772 -1,1c0,0.55228 0.44772,1 1,1z"></path><path d="M47.07,7.8c-2,-0.15 -12.21,-0.67 -13.53,3.71c-1.75,5.85 9.81,10.11 1.19,20.65c-11.6,14.18 -33.39,11.67 -33.61,11.64c-0.55228,-0.06627 -1.05373,0.32772 -1.12,0.88c-0.06627,0.55228 0.32772,1.05373 0.88,1.12c1.55169,0.15414 3.11082,0.22091 4.67,0.2c7.36,0 21.69,-1.55 30.72,-12.59c9.33,-11.4 -2,-17.25 -0.81,-21.35c0.63,-2.11 7.08,-2.61 11.47,-2.29c0.48952,-0.04291 0.87533,-0.43513 0.91016,-0.92529c0.03483,-0.49016 -0.29163,-0.933 -0.77016,-1.04471z"></path><path d="M10.85,38.58c-1.32795,-0.86601 -3.04205,-0.86601 -4.37,0c-0.68999,0.48492 -1.61001,0.48492 -2.3,0c-1.29,-0.77 -3.18,-1.06 -3.18,0.36c0,0.55228 0.44772,1 1,1c0.41331,-0.01569 0.81941,0.11144 1.15,0.36c1.32561,0.86167 3.03439,0.86167 4.36,0c0.69216,-0.48962 1.61784,-0.48962 2.31,0c1.27,0.76 3.18,1.07 3.18,-0.36c0,-0.55228 -0.44772,-1 -1,-1c-0.41266,0.01094 -0.81724,-0.11571 -1.15,-0.36z"></path><path d="M15.25,31c1.18,0 1.45,1 3.34,1c0.55228,0 1,-0.44772 1,-1c0,-0.55228 -0.44772,-1 -1,-1c-1.18,0 -1.45,-1 -3.34,-1c-1.89,0 -2.14,1 -3.33,1c-1.19,0 -1.45,-1 -3.33,-1c-0.55228,0 -1,0.44772 -1,1c0,0.55228 0.44772,1 1,1c1.17,0 1.45,1 3.33,1c1.88,0 2.14,-1 3.33,-1z"></path><path d="M15.75,36c1.17,0 1.45,1 3.33,1c1.88,0 2.13,-1 3.33,-1c1.2,0 1.45,1 3.34,1c0.55228,0 1,-0.44772 1,-1c0,-0.55228 -0.44772,-1 -1,-1c-1.18,0 -1.45,-1 -3.34,-1c-1.89,0 -2.13,1 -3.33,1c-1.2,0 -1.46,-1 -3.33,-1c-0.55228,0 -1,0.44772 -1,1c0,0.55228 0.44772,1 1,1z"></path><path d="M29,27.75c1.27,0.77 3.18,1.08 3.18,-0.35c0,-0.55228 -0.44772,-1 -1,-1c-0.42699,0.00231 -0.84244,-0.13852 -1.18,-0.4c-1.32561,-0.86167 -3.03439,-0.86167 -4.36,0c-0.68999,0.48492 -1.61001,0.48492 -2.3,0c-1.28,-0.77 -3.18,-1.07 -3.18,0.36c0,0.55228 0.44772,1 1,1c0.41141,-0.01308 0.81563,0.10995 1.15,0.35c1.32561,0.86167 3.03439,0.86167 4.36,0c0.70502,-0.48725 1.64212,-0.47116 2.33,0.04z"></path></g></g></g></svg>